<svg xmlns="http://www.w3.org/2000/svg" width="50" height="50" viewBox="0 0 50 50"><g fill="#fff"><path d="M4.481 39.104v-.4c.029-.142.067-.281.084-.425.121-1.073.238-2.146.357-3.22l.605-5.446.594-5.367c.23-2.08.459-4.161.69-6.241.073-.657.155-1.312.231-1.966h35.893c.025.122.055.225.067.329.222 2.002.444 4.004.664 6.005.249 2.267.494 4.534.745 6.801.287 2.598.574 5.195.868 7.792.065.581.157 1.159.237 1.738v.4c-2.176.316-4.352.635-6.527.947-3.35.48-6.7.958-10.051 1.436-.455.064-.912.119-1.386.182l-2.507-12.533-.098.008-2.507 12.532c-.715-.102-1.386-.195-2.056-.291l-8.071-1.159c-2.609-.375-5.22-.748-7.832-1.122z"/><path fill-rule="evenodd" clip-rule="evenodd" d="M42.951 13.439H7.048c0-.544-.008-1.085.002-1.626.009-.493-.029-.998.068-1.475.253-1.235 1.255-2.01 2.533-2.01 8.465-.003 16.929-.001 25.394-.001 1.763 0 3.524 0 5.287-.003 1.494-.002 2.615 1.105 2.619 2.59.002.828 0 1.654 0 2.525z"/></g></svg>