<svg id="Laag_1" xmlns="http://www.w3.org/2000/svg" viewBox="0 0 572 499"><style>.st0{fill:#fff}</style><title>discover</title><g id="Page-1"><g id="discover"><path id="Shape" class="st0" d="M492 100.4c-33.1-5.3-66.2-9.3-99.9-11.9l69.5-69.4c2-2 3.3-5.3 3.3-7.9s-1.3-6-3.3-7.9c-4.6-4.6-11.2-4.6-15.9 0L363 85.8l-10.6-23.1h-135l-10.6 23.1-82.7-82.6c-2-2-5.3-3.3-7.9-3.3-2.6 0-6 1.3-7.9 3.3-4.6 4.6-4.6 11.2 0 15.9l69.5 69.4c-33.1 2.6-66.8 6.6-99.9 11.9-43.7 7.3-78.1 45-78.1 80v220.2c0 35.1 34.4 72.7 78.1 80 137 21.8 277.9 21.8 414.8 0 43.7-7.3 78.1-45 78.1-80V180.4c-.1-35-35.2-72.7-78.8-80z" transform="translate(1 1)"/><g id="Group"><path id="Shape_1_" d="M-2 95.9c0-27.1 9.3-49.6 27.8-68.1S66.8 0 94 0c12.6 0 23.8 2.6 35.7 7.3 11.2 4.6 21.8 11.2 30.4 20.5 9.3 9.3 16.5 19.2 21.2 31.1s7.3 23.8 7.3 36.4c0 13.2-2 25.1-6.6 37s-11.2 21.8-19.8 31.1c-9.3 9.3-19.2 16.5-31.1 21.8-11.9 5.3-23.8 7.3-37.1 7.3-13.9 0-26.5-2.6-37.7-7.3-11.9-4.6-21.8-11.9-31.1-21.8-8.6-9.3-15.2-19.2-19.2-31.1C.7 121-2 109.1-2 95.9zm96-58.2c-16.5 0-29.8 5.3-41 16.5s-16.5 25.1-16.5 41 6 29.8 17.2 41.7 25.1 17.9 40.4 17.9c15.9 0 29.8-6 40.4-17.2 11.2-11.2 16.5-25.8 16.5-43 0-15.9-5.3-29.1-16.5-40.3-12.1-10.7-25.3-16.6-40.5-16.6z" transform="translate(82.763 198.611)"/><path id="Shape_2_" d="M218.3 95.9c0-27.1 9.3-49.6 27.8-68.1S287.1 0 314.3 0c12.6 0 23.8 2.6 35.7 7.3 11.2 4.6 21.8 11.2 30.4 20.5C389.7 37 397 47 401.6 58.9c4.6 11.9 7.3 23.8 7.3 36.4 0 13.2-2 25.1-6.6 37-4.6 11.9-11.2 21.8-19.8 31.1-9.3 9.3-19.2 16.5-31.1 21.8-11.9 5.3-23.8 7.3-37.1 7.3-13.9 0-26.5-2.6-37.7-7.3-11.2-4.6-21.8-11.9-31.1-21.8-8.6-9.3-15.2-19.2-19.2-31.1-6-11.3-8-23.2-8-36.4zm95.3-58.2c-16.5 0-29.8 5.3-41 16.5S256 79.4 256 95.2s6 29.8 17.2 41.7 25.1 17.9 40.4 17.9c15.9 0 29.8-6 40.4-17.2 11.2-11.2 16.5-25.8 16.5-43 0-15.9-5.3-29.1-16.5-40.3-11.3-10.7-24.5-16.6-40.4-16.6z" transform="translate(82.763 198.611)"/></g></g></g></svg>