<svg width="90" height="90" viewBox="0 0 90 90" xmlns="http://www.w3.org/2000/svg"><title>noun_79685_cc</title><path fill="#fff" d="M75.325.011h1.904c1.098 0 .978-.088.978 1.009v1.679c0 .705.577 1.283 1.283 1.283h5.238c.705 0 1.283-.577 1.283-1.283V.766c0-.804-.105-.754.705-.754h2.542c.829 0 .73-.055.73.771v86.894c0 2.697.097 2.301-2.586 2.301H76.667c-2.374 0-2.332.383-2.332-2.008 0-.157-.014-.308-.046-.449V85.99a3.918 3.918 0 0 0-3.907-3.907H19.593a3.918 3.918 0 0 0-3.907 3.907v3.555c-.044.476-.281.432-1.336.432h-1.283c-1.46 0-1.261.07-1.261-1.384v-1.286c0-.706-.577-1.283-1.283-1.283H5.285c-.705 0-1.283.577-1.283 1.283v.883c0 1.554.401 1.787-1.193 1.787H1.453c-1.824 0-1.416-.147-1.41-1.937C.167 59.555.035 30.483.033 2.028.033-.256-.111.011 2.182.011h2.872c.071.012.14.018.213.018h5.238c.073 0 .147-.005.218-.018h3.11c1.507 0 1.804-.097 1.853.653v3.249a3.918 3.918 0 0 0 3.907 3.907h50.791a3.918 3.918 0 0 0 3.907-3.907v-2.47c.031-.188.046-.388.046-.607-.001-.997.001-.825.988-.825zM50.849 54.642c-.053-6.857.04-13.663.028-20.556a39.743 39.743 0 0 0 3.538 2.127 99.21 99.21 0 0 0 1.779.924c1.575.795 3.111 1.478 4.779 2.274.353.168.712.332 1.034.39.58.105.58-.615.592-1.349 0-2.56.026-4.792 0-7.354-.005-.656-.029-.914-.547-1.27l-4.53-2.591a37.462 37.462 0 0 1-4.698-3.18l-4.525-3.547c-.815-.551-1.341-.249-1.337.796l.025 7.787-.05 24.21c-2.074-1.546-4.816-2.49-7.819-2.49-6.474 0-11.724 4.369-11.724 9.757 0 5.389 5.25 9.758 11.724 9.758 4.349 0 8.296-1.876 10.171-4.901 1.924-3.105 1.582-7.94 1.56-10.785zM19.688 11.768a4.013 4.013 0 0 0-4.002 4.003V74.21a4.017 4.017 0 0 0 4.002 4.003h50.646a4.02 4.02 0 0 0 4.003-4.003V15.77a4.018 4.018 0 0 0-4.003-4.003H19.688v.001zm59.821 46.931c-.705 0-1.283.577-1.283 1.283v5.238c0 .706.577 1.283 1.283 1.283h5.238c.705 0 1.283-.577 1.283-1.283v-5.238c0-.706-.577-1.283-1.283-1.283h-5.238zm.046 15.617c-.706 0-1.283.577-1.283 1.283v5.238c0 .706.577 1.283 1.283 1.283h5.238c.706 0 1.283-.577 1.283-1.283v-5.238c0-.706-.577-1.283-1.283-1.283h-5.238zm-.064-46.859c-.705 0-1.283.577-1.283 1.283v5.238c0 .706.577 1.283 1.283 1.283h5.238c.705 0 1.283-.577 1.283-1.283V28.74c0-.706-.577-1.283-1.283-1.283h-5.238zm.045 15.617c-.706 0-1.283.577-1.283 1.283v5.238c0 .706.577 1.283 1.283 1.283h5.238c.705 0 1.283-.577 1.283-1.283v-5.238c0-.706-.577-1.283-1.283-1.283h-5.238zm0-31.279c-.706 0-1.283.577-1.283 1.283v5.238c0 .705.577 1.283 1.283 1.283h5.238c.705 0 1.283-.577 1.283-1.283v-5.238c0-.706-.577-1.283-1.283-1.283h-5.238zM5.285 54.746c-.705 0-1.283.577-1.283 1.283v5.238c0 .706.577 1.283 1.283 1.283h5.238c.706 0 1.283-.577 1.283-1.283v-5.238c0-.706-.577-1.283-1.283-1.283H5.285zm.045 15.617c-.705 0-1.283.577-1.283 1.283v5.238c0 .706.577 1.283 1.283 1.283h5.238c.705 0 1.283-.577 1.283-1.283v-5.238c0-.706-.577-1.283-1.283-1.283H5.33zm-.064-46.859c-.706 0-1.283.577-1.283 1.283v5.238c0 .706.577 1.283 1.283 1.283h5.238c.706 0 1.283-.577 1.283-1.283v-5.238c0-.706-.577-1.283-1.283-1.283H5.266zm.045 15.617c-.705 0-1.283.577-1.283 1.283v5.238c0 .706.577 1.283 1.283 1.283h5.238c.706 0 1.283-.577 1.283-1.283v-5.238c0-.706-.577-1.283-1.283-1.283H5.311zm0-31.278c-.705 0-1.283.577-1.283 1.283v5.238c0 .705.577 1.283 1.283 1.283h5.238c.706 0 1.283-.577 1.283-1.283V9.126c0-.706-.577-1.283-1.283-1.283H5.311z" fill-rule="evenodd"/></svg>