<svg width="565" height="502" viewBox="0 0 565 502" xmlns="http://www.w3.org/2000/svg"><title>people</title><g transform="translate(1 -4)" fill="#fff" fill-rule="evenodd"><path d="M281.199 396.11l-125.145 95.276c-36.676 27.922-55.835 14.719-42.792-29.493l43.99-149.116-131.776-81.215c-39.237-24.182-33.68-43.785 12.417-43.785h164.431l51.71-150.24c15.003-43.59 39.327-43.59 54.33 0l51.71 150.24h164.431c46.094 0 51.658 19.6 12.417 43.785l-131.777 81.215 43.99 149.116c13.044 44.21-6.116 57.414-42.791 29.493L281.199 396.11zm.301-41.943c40.307 0 72.981-32.646 72.981-72.917 0-40.27-32.674-72.917-72.981-72.917-40.307 0-72.981 32.646-72.981 72.917 0 40.27 32.674 72.917 72.981 72.917z"/><ellipse cx="281.5" cy="281.25" rx="31.278" ry="31.25"/></g></svg>